HIERARCHY
ROOT Hips
{
  OFFSET 5.72205e-005 65.662 3.42586
  CHANNELS 6 Xposition Yposition Zposition Zrotation Xrotation Yrotation
  JOINT Chest
  {
    OFFSET 0 8.7983 -4.7612
    CHANNELS 3 Zrotation Xrotation Yrotation
    JOINT Chest2
    {
      OFFSET 0 8.0291 0.4195
      CHANNELS 3 Zrotation Xrotation Yrotation
      JOINT Chest3
      {
        OFFSET 0 9.9351 -2.2114
        CHANNELS 3 Zrotation Xrotation Yrotation
        JOINT Neck
        {
          OFFSET 0 22.3885 -0.4656
          CHANNELS 3 Zrotation Xrotation Yrotation
          JOINT Head
          {
            OFFSET -0.0001 12.643 3.4389
            CHANNELS 3 Zrotation Xrotation Yrotation
            End Site
            {
              OFFSET 0.0001 17.6655 0.5274
            }
          }
        }
        JOINT LeftCollar
        {
          OFFSET 2.2603 21.606 7.4023
          CHANNELS 3 Zrotation Xrotation Yrotation
          JOINT LeftShoulder
          {
            OFFSET 13.5163 -1.1332 -5.0146
            CHANNELS 3 Zrotation Xrotation Yrotation
            JOINT LeftElbow
            {
              OFFSET -0.0995 -28.05 -0.2431
              CHANNELS 3 Zrotation Xrotation Yrotation
              JOINT LeftWrist
              {
                OFFSET 0.0679 -23.3996 -0.1402
                CHANNELS 3 Zrotation Xrotation Yrotation
                JOINT LeftFinger1
                {
                  OFFSET 0.7932 -9.069 2.5189
                  CHANNELS 3 Zrotation Xrotation Yrotation
                  JOINT LeftFinger11
                  {
                    OFFSET -0.8272 -3.3923 0.5977
                    CHANNELS 3 Zrotation Xrotation Yrotation
                    JOINT LeftFinger12
                    {
                      OFFSET -0.5649 -2.3158 0.4082
                      CHANNELS 3 Zrotation Xrotation Yrotation
                      End Site
                      {
                        OFFSET -0.4919 -1.6479 0.2673
                      }
                    }
                  }
                }
                JOINT LeftFinger2
                {
                  OFFSET 0.9159 -9.2044 0.2193
                  CHANNELS 3 Zrotation Xrotation Yrotation
                  JOINT LeftFinger21
                  {
                    OFFSET 0.0117 -4.1944 -0.0248
                    CHANNELS 3 Zrotation Xrotation Yrotation
                    JOINT LeftFinger22
                    {
                      OFFSET 0.0071 -2.3249 -0.0142
                      CHANNELS 3 Zrotation Xrotation Yrotation
                      End Site
                      {
                        OFFSET -0.1475 -2.0882 0.0028
                      }
                    }
                  }
                }
                JOINT LeftFinger3
                {
                  OFFSET 0.6113 -8.7231 -2.0637
                  CHANNELS 3 Zrotation Xrotation Yrotation
                  JOINT LeftFinger31
                  {
                    OFFSET -0.1927 -3.8059 -0.2383
                    CHANNELS 3 Zrotation Xrotation Yrotation
                    JOINT LeftFinger32
                    {
                      OFFSET -0.1091 -2.1688 -0.1362
                      CHANNELS 3 Zrotation Xrotation Yrotation
                      End Site
                      {
                        OFFSET -0.2358 -1.9176 -0.0906
                      }
                    }
                  }
                }
                JOINT LeftFinger4
                {
                  OFFSET -0.6151 -8.0947 -3.5641
                  CHANNELS 3 Zrotation Xrotation Yrotation
                  JOINT LeftFinger41
                  {
                    OFFSET -0.4882 -2.341 -0.6462
                    CHANNELS 3 Zrotation Xrotation Yrotation
                    JOINT LeftFinger42
                    {
                      OFFSET -0.3575 -1.7167 -0.4742
                      CHANNELS 3 Zrotation Xrotation Yrotation
                      End Site
                      {
                        OFFSET -0.4187 -1.5237 -0.3496
                      }
                    }
                  }
                }
                JOINT LeftFinger0
                {
                  OFFSET -1.42 -1.8761 1.4223
                  CHANNELS 3 Zrotation Xrotation Yrotation
                  JOINT LeftFinger01
                  {
                    OFFSET -1.1471 -3.4929 2.6334
                    CHANNELS 3 Zrotation Xrotation Yrotation
                    JOINT LeftFinger02
                    {
                      OFFSET -0.823 -2.3 1.6571
                      CHANNELS 3 Zrotation Xrotation Yrotation
                      End Site
                      {
                        OFFSET -0.5822 -1.6914 1.1582
                      }
                    }
                  }
                }
              }
            }
          }
        }
        JOINT RightCollar
        {
          OFFSET -2.2603 21.606 7.4023
          CHANNELS 3 Zrotation Xrotation Yrotation
          JOINT RightShoulder
          {
            OFFSET -13.5187 -1.1334 -5.0155
            CHANNELS 3 Zrotation Xrotation Yrotation
            JOINT RightElbow
            {
              OFFSET 0.0994 -28.0499 -0.2431
              CHANNELS 3 Zrotation Xrotation Yrotation
              JOINT RightWrist
              {
                OFFSET -0.0679 -23.3996 -0.1402
                CHANNELS 3 Zrotation Xrotation Yrotation
                JOINT RightFinger1
                {
                  OFFSET -0.7932 -9.0691 2.5189
                  CHANNELS 3 Zrotation Xrotation Yrotation
                  JOINT RightFinger11
                  {
                    OFFSET 0.8272 -3.3923 0.5977
                    CHANNELS 3 Zrotation Xrotation Yrotation
                    JOINT RightFinger12
                    {
                      OFFSET 0.565 -2.3158 0.4082
                      CHANNELS 3 Zrotation Xrotation Yrotation
                      End Site
                      {
                        OFFSET 0.4919 -1.6479 0.2673
                      }
                    }
                  }
                }
                JOINT RightFinger2
                {
                  OFFSET -0.916 -9.2044 0.2193
                  CHANNELS 3 Zrotation Xrotation Yrotation
                  JOINT RightFinger21
                  {
                    OFFSET -0.0117 -4.1944 -0.0248
                    CHANNELS 3 Zrotation Xrotation Yrotation
                    JOINT RightFinger22
                    {
                      OFFSET -0.0071 -2.3249 -0.0142
                      CHANNELS 3 Zrotation Xrotation Yrotation
                      End Site
                      {
                        OFFSET 0.1475 -2.0882 0.0028
                      }
                    }
                  }
                }
                JOINT RightFinger3
                {
                  OFFSET -0.6113 -8.7231 -2.0637
                  CHANNELS 3 Zrotation Xrotation Yrotation
                  JOINT RightFinger31
                  {
                    OFFSET 0.1927 -3.8059 -0.2383
                    CHANNELS 3 Zrotation Xrotation Yrotation
                    JOINT RightFinger32
                    {
                      OFFSET 0.1091 -2.1688 -0.1362
                      CHANNELS 3 Zrotation Xrotation Yrotation
                      End Site
                      {
                        OFFSET 0.2358 -1.9176 -0.0906
                      }
                    }
                  }
                }
                JOINT RightFinger4
                {
                  OFFSET 0.6151 -8.0947 -3.564
                  CHANNELS 3 Zrotation Xrotation Yrotation
                  JOINT RightFinger41
                  {
                    OFFSET 0.4882 -2.341 -0.6462
                    CHANNELS 3 Zrotation Xrotation Yrotation
                    JOINT RightFinger42
                    {
                      OFFSET 0.3574 -1.7166 -0.4742
                      CHANNELS 3 Zrotation Xrotation Yrotation
                      End Site
                      {
                        OFFSET 0.4187 -1.5237 -0.3496
                      }
                    }
                  }
                }
                JOINT RightFinger0
                {
                  OFFSET 1.4199 -1.8761 1.4221
                  CHANNELS 3 Zrotation Xrotation Yrotation
                  JOINT RightFinger01
                  {
                    OFFSET 1.1472 -3.4929 2.6336
                    CHANNELS 3 Zrotation Xrotation Yrotation
                    JOINT RightFinger02
                    {
                      OFFSET 0.8229 -2.3 1.6571
                      CHANNELS 3 Zrotation Xrotation Yrotation
                      End Site
                      {
                        OFFSET 0.5822 -1.6914 1.1582
                      }
                    }
                  }
                }
              }
            }
          }
        }
      }
    }
  }
  JOINT RightHip
  {
    OFFSET -9.412 3.9771 -0.7758
    CHANNELS 3 Zrotation Xrotation Yrotation
    JOINT RightKnee
    {
      OFFSET -0.7531 -40.938 0
      CHANNELS 3 Zrotation Xrotation Yrotation
      JOINT RightAnkle
      {
        OFFSET 0 -40.1986 0
        CHANNELS 3 Zrotation Xrotation Yrotation
        JOINT RightToe
        {
          OFFSET 0 -4.4182 9.239
          CHANNELS 3 Zrotation Xrotation Yrotation
          End Site
          {
            OFFSET 0 0 6.1981
          }
        }
      }
    }
  }
  JOINT LeftHip
  {
    OFFSET 9.4119 3.9773 -0.7758
    CHANNELS 3 Zrotation Xrotation Yrotation
    JOINT LeftKnee
    {
      OFFSET 0.7532 -40.9383 0
      CHANNELS 3 Zrotation Xrotation Yrotation
      JOINT LeftAnkle
      {
        OFFSET 0 -40.1986 0
        CHANNELS 3 Zrotation Xrotation Yrotation
        JOINT LeftToe
        {
          OFFSET 0 -4.4182 9.239
          CHANNELS 3 Zrotation Xrotation Yrotation
          End Site
          {
            OFFSET 0 0 6.1981
          }
        }
      }
    }
  }
}
MOTION
Frames:	4
Frame Time:	0.0333333
5.72205e-005 65.662 3.42586 0 0 -0 0 0 -0 0 0 -0 0 0 -0 0 0 -0 0 0 -0 0 0 -12.5014 88.1196 14.2451 10.6914 -0.00160068 -0.00239207 0.000740045 -8.4365e-005 7.00714e-005 -9.52055e-007 9.93923e-017 -1.98785e-016 -1.59028e-015 9.93923e-017 -5.96354e-016 -1.59028e-015 -9.93923e-017 -5.96354e-016 -1.59028e-015 9.93923e-017 -1.98785e-016 -1.59028e-015 -0.0128176 0.00232552 8.52707e-005 9.93923e-017 5.96354e-016 -0 9.93923e-017 -1.98785e-016 -1.59028e-015 -0.0160551 0.00299681 0.000857156 -2.48481e-016 0 3.18055e-015 9.93923e-017 -1.98785e-016 -1.59028e-015 -0.0125865 0.0031206 0.00282719 0 1.98785e-016 -0 9.93923e-017 -1.98785e-016 -1.59028e-015 9.93923e-017 -5.96354e-016 -1.59028e-015 -9.93923e-017 -5.96354e-016 -1.59028e-015 -0.865644 0.16582 7.03859 -88.0329 10.2057 -10.5567 0.0015593 -0.00248883 -0.000788628 7.87605e-005 4.10553e-005 1.24965e-005 -3.97569e-016 -7.95139e-016 3.18055e-015 -1.98785e-016 -3.97569e-016 3.18055e-015 -1.98785e-016 0 3.18055e-015 -3.97569e-016 -7.95139e-016 3.18055e-015 0.0129473 0.00231697 -8.70038e-005 9.93923e-017 -7.95139e-016 1.59028e-015 -3.97569e-016 -7.95139e-016 3.18055e-015 0.0163314 0.00303369 -0.000872333 3.97569e-016 7.95139e-016 -3.18055e-015 -3.97569e-016 -7.95139e-016 3.18055e-015 0.0145763 0.00367772 -0.00326275 9.93923e-017 -3.97569e-016 -0 -3.97569e-016 -7.95139e-016 3.18055e-015 -1.98785e-016 -3.97569e-016 3.18055e-015 -1.98785e-016 0 3.18055e-015 3.42482 1.32465 -0.0626183 0.000117508 0.717283 0.000978199 -3.4257 -2.04197 -0.0604716 6.47761e-025 0 -0 -3.42483 1.34017 0.0627307 -0.000193936 0.682302 -0.0013703 3.42574 -2.02253 0.0595886 -8.45714e-024 0 -7.40531e-025 
-27.6016 -0.142891 9.6409 -180 -89.9981 -180 -0.363064 8.41606 -0.0759629 -0.726682 16.8325 -0.0989526 -0.726683 16.8326 -0.0989523 1.96733e-006 17.9983 2.46402e-007 1.70131e-007 8.99857 -6.4461e-008 0.841574 0.295483 -3.56083 33.8247 41.6579 6.97065 64.1632 -82.813 32.5876 -22.0194 -27.565 -14.21 1.59028e-015 3.18055e-015 5.36719e-015 -3.42078e-031 3.18055e-015 6.16232e-015 -1.59028e-015 0 3.57812e-015 1.59028e-015 3.18055e-015 5.36719e-015 -0.0128145 0.00234363 9.80197e-005 0 3.18055e-015 -0 1.59028e-015 3.18055e-015 5.36719e-015 -0.0160467 0.00299156 0.000860841 1.59028e-015 0 -2.5842e-015 1.59028e-015 3.18055e-015 5.36719e-015 -0.0125797 0.0031331 0.00283175 -3.18055e-015 1.59028e-015 2.18663e-015 1.59028e-015 3.18055e-015 5.36719e-015 -3.42078e-031 3.18055e-015 6.16232e-015 -1.59028e-015 0 3.57812e-015 -1.43854 0.726689 -1.56488 -6.47107 34.3901 -18.449 29.8806 -72.5929 56.2515 5.47266 1.36249 23.9037 1.43452e-031 -1.59028e-015 5.1684e-015 -8.74238e-006 -8.33494e-006 3.81021e-006 -1.65078e-006 -1.82657e-008 -4.13488e-007 1.43452e-031 -1.59028e-015 5.1684e-015 0.0129869 0.00233062 -8.56883e-005 -3.18055e-015 -1.83087e-008 5.56597e-015 1.43452e-031 -1.59028e-015 5.1684e-015 0.0162976 0.00303021 -0.000868847 -2.99073e-006 9.90451e-007 -2.96291e-006 1.43452e-031 -1.59028e-015 5.1684e-015 0.0145872 0.00368326 -0.00325901 -7.95139e-016 -1.59028e-015 -1.59028e-015 1.43452e-031 -1.59028e-015 5.1684e-015 -8.74238e-006 -8.33494e-006 3.81021e-006 -1.65078e-006 -1.82657e-008 -4.13488e-007 -7.92497 -24.7791 -5.79216 6.98545 69.7982 -7.85229 -7.79615 11.349 -1.07103 -2.86512e-007 -3.25659e-008 -8.13469e-007 16.7091 -0.79498 1.11362 -2.29931 18.9388 1.4368 6.23103 32.4785 -6.09791 5.06427e-006 1.94867e-006 -7.89226e-007 
-27.601 -0.141678 9.64095 179.999 -89.9981 179.999 -0.363064 8.41606 -0.0759629 -0.726682 16.8325 -0.0989526 -0.726683 16.8326 -0.0989523 -0.00788968 17.8541 0.0475763 -1.06528e-007 8.43285 -2.88992e-007 0.841574 0.295483 -3.56083 33.8247 41.6579 6.97067 66.053 -83.3156 34.9492 -22.0194 -27.565 -14.21 -1.59028e-015 -4.77083e-015 -1.98785e-015 9.40263e-007 5.19496e-006 -1.36182e-006 -2.60424e-006 -5.24123e-006 1.60453e-006 -1.59028e-015 -4.77083e-015 -1.98785e-015 -0.0128174 0.00231712 7.76821e-005 3.18055e-015 3.18055e-015 1.78906e-015 -1.59028e-015 -4.77083e-015 -1.98785e-015 -0.0160453 0.00300416 0.000856362 3.18055e-015 1.43125e-014 5.1684e-015 -1.59028e-015 -4.77083e-015 -1.98785e-015 -0.0125949 0.00311594 0.00282823 -4.73957e-006 2.64994e-007 3.91764e-006 -1.59028e-015 -4.77083e-015 -1.98785e-015 9.40263e-007 5.19496e-006 -1.36182e-006 -2.60424e-006 -5.24123e-006 1.60453e-006 -1.43854 0.726689 -1.56488 -6.47107 34.3901 -18.449 29.8806 -72.5929 56.2515 5.47266 1.36249 23.9037 2.38542e-015 -1.59028e-015 5.1684e-015 -8.74238e-006 -8.33494e-006 3.81021e-006 -1.65078e-006 -1.82657e-008 -4.13488e-007 2.38542e-015 -1.59028e-015 5.1684e-015 0.0129663 0.00232069 -8.26368e-005 -3.61226e-006 1.56195e-006 1.30862e-006 2.38542e-015 -1.59028e-015 5.1684e-015 0.016313 0.00302191 -0.000869397 -3.30159e-006 1.6423e-006 -8.27147e-007 2.38542e-015 -1.59028e-015 5.1684e-015 0.0145872 0.00368326 -0.00325901 1.59028e-015 0 -2.98177e-015 2.38542e-015 -1.59028e-015 5.1684e-015 -8.74238e-006 -8.33494e-006 3.81021e-006 -1.65078e-006 -1.82657e-008 -4.13488e-007 -8.11583 -24.8127 -6.22944 6.98573 69.7997 -7.85304 -7.79674 11.3522 -1.07093 1.59028e-015 3.18055e-015 3.18055e-015 16.7087 -0.794298 1.11368 -2.29933 18.9392 1.43694 6.23143 32.4774 -6.09787 4.23956e-006 -9.0336e-006 2.31458e-006 
-27.6003 -0.140457 9.64101 179.998 -89.9981 179.998 -0.363064 8.41606 -0.0759628 -0.726682 16.8325 -0.0989526 -0.726683 16.8326 -0.0989522 -0.0156518 17.7098 0.0951036 1.65905e-007 7.86622 -3.20708e-007 0.841575 0.295483 -3.56083 33.8248 41.6578 6.97058 68.2881 -83.8085 37.6566 -22.0195 -27.5649 -14.2101 1.37511e-006 -4.52427e-006 -3.44443e-006 -5.13117e-031 -4.77083e-015 -6.16232e-015 -1.15865e-031 -4.77083e-015 -1.39149e-015 1.37511e-006 -4.52427e-006 -3.44443e-006 -0.0128071 0.00232261 7.5328e-005 1.59028e-015 3.18055e-015 1.0138e-014 1.37511e-006 -4.52427e-006 -3.44443e-006 -0.0160521 0.00300912 0.000854247 1.37504e-006 -4.52291e-006 -3.44434e-006 1.37511e-006 -4.52427e-006 -3.44443e-006 -0.0125948 0.00312404 0.00282651 -4.77083e-015 -3.36732e-006 3.97569e-016 1.37511e-006 -4.52427e-006 -3.44443e-006 -5.13117e-031 -4.77083e-015 -6.16232e-015 -1.15865e-031 -4.77083e-015 -1.39149e-015 -1.43854 0.726689 -1.56488 -6.47112 34.3901 -18.4489 29.8805 -72.5928 56.2513 5.47264 1.36247 23.9037 -1.59028e-015 1.59028e-014 5.56597e-015 -1.59028e-015 1.27222e-014 7.15625e-015 -3.18055e-015 9.54166e-015 5.96354e-015 -1.59028e-015 1.59028e-014 5.56597e-015 0.0129645 0.00231557 -8.46548e-005 7.95139e-016 -1.59028e-015 -1.07344e-014 -1.59028e-015 1.59028e-014 5.56597e-015 0.0163196 0.00303368 -0.000873221 -1.59028e-015 7.95139e-015 6.36111e-015 -1.59028e-015 1.59028e-014 5.56597e-015 0.0146027 0.00368969 -0.00326491 -7.95139e-016 1.59028e-015 -8.15017e-015 -1.59028e-015 1.59028e-014 5.56597e-015 -1.59028e-015 1.27222e-014 7.15625e-015 -3.18055e-015 9.54166e-015 5.96354e-015 -8.30743 -24.8438 -6.66736 6.98608 69.8 -7.8535 -7.79736 11.3553 -1.07081 1.04461e-006 -2.66335e-008 2.31955e-006 16.7083 -0.793317 1.11374 -2.29934 18.9392 1.43705 6.23183 32.4764 -6.09784 -5.9937e-006 1.2913e-005 -1.83729e-006 
